<svg xmlns="http://www.w3.org/2000/svg" width="1440" height="900" viewBox="0 0 1440 900">
<rect x="0" y="0" width="100%" height="100%" fill="transparent"/>
<rect x="0" y="0" width="1440" height="900" rx="16" ry="16" fill="#121212" stroke="#ffffff1f" stroke-width="1"/>
<rect x="0" y="0" width="1440" height="64" rx="0" ry="0" fill="#1E1E1E" stroke="#ffffff1f" stroke-width="1"/>
<text x="24" y="18" fill="#FFFFFF" font-family="Inter" font-size="18" font-weight="600">机器人运动控制系统</text>
<text x="24" y="14" fill="#B3B3B3" font-family="Inter" font-size="14" font-weight="500">未连接</text>
<rect x="24" y="0" width="0" height="0" rx="8" ry="8" fill="none" stroke="#ffffff1f" stroke-width="1"/>
<text x="36" y="22" fill="#FFFFFF" font-family="Inter" font-size="14" font-weight="600">连接管理</text>
<rect x="0" y="64" width="280" height="836" rx="0" ry="0" fill="#1E1E1E" stroke="#ffffff1f" stroke-width="1"/>
<rect x="24" y="88" width="28" height="28" rx="6" ry="6" fill="#2196F3" stroke="none" stroke-width="0"/>
<text x="24" y="104" fill="#FFFFFF" font-family="Inter" font-size="16" font-weight="700">RobotControl</text>
<text x="24" y="123.6" fill="#B3B3B3" font-family="Inter" font-size="12" font-weight="500">v1.0.0</text>
<rect x="16" y="104" width="0" height="0" rx="10" ry="10" fill="none" stroke="#00000000" stroke-width="1"/>
<rect x="28" y="114" width="18" height="18" rx="4" ry="4" fill="#ffffff33" stroke="none" stroke-width="0"/>
<text x="28" y="128" fill="#B3B3B3" font-family="Inter" font-size="14" font-weight="600">仪表板</text>
<rect x="16" y="110" width="0" height="0" rx="10" ry="10" fill="#2196F3" stroke="none" stroke-width="0"/>
<rect x="28" y="120" width="18" height="18" rx="4" ry="4" fill="#ffffff33" stroke="none" stroke-width="0"/>
<text x="28" y="134" fill="#FFFFFF" font-family="Inter" font-size="14" font-weight="600">实时监控</text>
<rect x="28" y="126" width="18" height="18" rx="4" ry="4" fill="#ffffff1a" stroke="none" stroke-width="0"/>
<text x="28" y="140" fill="#B3B3B3" font-family="Inter" font-size="14" font-weight="600">轨迹规划</text>
<rect x="28" y="132" width="18" height="18" rx="4" ry="4" fill="#ffffff1a" stroke="none" stroke-width="0"/>
<text x="28" y="146" fill="#B3B3B3" font-family="Inter" font-size="14" font-weight="600">参数调优</text>
<rect x="28" y="138" width="18" height="18" rx="4" ry="4" fill="#ffffff1a" stroke="none" stroke-width="0"/>
<text x="28" y="152" fill="#B3B3B3" font-family="Inter" font-size="14" font-weight="600">系统设置</text>
<text x="24" y="137" fill="#FFFFFF" font-family="Inter" font-size="13" font-weight="700">User</text>
<text x="24" y="155.55" fill="#B3B3B3" font-family="Inter" font-size="12" font-weight="500">user@example.com</text>
<text x="304" y="116" fill="#FFFFFF" font-family="Inter" font-size="28" font-weight="700">系统监控</text>
<rect x="304" y="104" width="1112" height="280" rx="12" ry="12" fill="#1E1E1E" stroke="#ffffff1f" stroke-width="1"/>
<text x="320" y="136" fill="#FFFFFF" font-family="Inter" font-size="16" font-weight="700">3D 机器人视图</text>
<text x="320" y="146" fill="#B3B3B3" font-family="Inter" font-size="14" font-weight="500">Robot3DViewer + 监控覆盖层</text>
<rect x="304" y="104" width="1112" height="280" rx="12" ry="12" fill="#1E1E1E" stroke="#ffffff1f" stroke-width="1"/>
<text x="320" y="136" fill="#FFFFFF" font-family="Inter" font-size="16" font-weight="700">系统状态</text>
<text x="320" y="146" fill="#B3B3B3" font-family="Inter" font-size="14" font-weight="500">CPU 45% · 内存 62% · 温度 38°C（示例）</text>
<rect x="304" y="120" width="1112" height="200" rx="12" ry="12" fill="#1E1E1E" stroke="#ffffff1f" stroke-width="1"/>
<text x="320" y="152" fill="#FFFFFF" font-family="Inter" font-size="16" font-weight="700">系统警报</text>
<text x="320" y="162" fill="#B3B3B3" font-family="Inter" font-size="14" font-weight="500">告警列表：关节温度/系统事件（Alert）</text>
<rect x="304" y="336" width="1112" height="320" rx="12" ry="12" fill="#1E1E1E" stroke="#ffffff1f" stroke-width="1"/>
<text x="320" y="368" fill="#FFFFFF" font-family="Inter" font-size="16" font-weight="700">实时性能监控</text>
<text x="320" y="378" fill="#B3B3B3" font-family="Inter" font-size="14" font-weight="500">实时图表占位（CPU/内存/延迟）</text>
<rect x="280" y="900" width="1160" height="40" rx="0" ry="0" fill="#1E1E1E" stroke="#ffffff1f" stroke-width="1"/>
<rect x="296" y="900" width="0" height="0" rx="0" ry="0" fill="none" stroke="#ffffff1f" stroke-width="1"/>
<ellipse cx="310" cy="908" rx="4" ry="4" fill="#F44336" stroke="none" stroke-width="0"/>
<text x="306" y="916" fill="#FFFFFF" font-family="Inter" font-size="12" font-weight="600">未连接</text>
<text x="296" y="912" fill="#B3B3B3" font-family="Inter" font-size="12" font-weight="500">当前页面: monitoring · 更新: 从未</text>
</svg>
